<svg xmlns="http://www.w3.org/2000/svg" width="50" height="50"  ><path d="M37.547 17.746c-.781-.66-1.86-.937-2.957-.754l-6.54 1.09c-.628.105-1.413.168-2.245.195v-5.644a.804.804 0 1 0-1.61 0v5.644c-.832-.027-1.617-.09-2.246-.195l-6.539-1.09c-1.098-.183-2.176.094-2.957.754-.75.637-1.164 1.55-1.164 2.578v3.922a.81.81 0 0 0 .809.809c.093 0 .18 0 .27.004v20.91A4.036 4.036 0 0 0 16.397 50h17.204a4.036 4.036 0 0 0 4.03-4.031v-20.91c.09-.004.177-.004.27-.004a.81.81 0 0 0 .809-.809v-3.922c0-1.027-.414-1.941-1.164-2.578M36.023 45.97a2.423 2.423 0 0 1-2.421 2.418H16.398a2.423 2.423 0 0 1-2.421-2.418V25.453c.316.152.601.344.898.54.852.57 1.816 1.21 3.672 1.21 1.86 0 2.824-.64 3.676-1.21.754-.505 1.41-.938 2.777-.938s2.023.433 2.781.937c.492.332 1.055.703 1.813.945a.807.807 0 0 0 .488-1.539c-.543-.171-.941-.437-1.41-.746-.852-.57-1.817-1.21-3.672-1.21-1.86 0-2.82.64-3.672 1.21-.758.504-1.41.938-2.781.938-1.367 0-2.02-.434-2.777-.938-.72-.48-1.52-1.011-2.868-1.168v-3.16c0-.547.211-1.023.594-1.347.426-.36 1.012-.5 1.649-.395l6.539 1.094c.91.148 2.097.226 3.293.226h.046c1.192 0 2.383-.078 3.29-.226l6.542-1.094c.637-.105 1.223.035 1.649.395.383.324.594.8.594 1.347v3.16c-1.352.157-2.149.688-2.868 1.168-.464.309-.867.575-1.41.746a.81.81 0 0 0-.562.77v8.719a.81.81 0 0 1-.805.804.81.81 0 0 1-.808-.804v-5.492a.807.807 0 0 0-1.613 0v5.492a2.423 2.423 0 0 0 2.421 2.418 2.42 2.42 0 0 0 2.418-2.418v-8.164c.488-.22.887-.489 1.25-.73.3-.2.582-.388.899-.54V45.97Zm0 0" style="stroke:none;fill-rule:nonzero;fill:#000;fill-opacity:1"/><path d="M21.27 15.355a.803.803 0 0 0 1.132-.125.803.803 0 0 0-.125-1.132 4.35 4.35 0 0 1-1.644-3.41c0-2.254 1.582-5.38 4.367-8.657 2.785 3.278 4.367 6.403 4.367 8.657a4.35 4.35 0 0 1-1.644 3.41.803.803 0 0 0-.125 1.132.797.797 0 0 0 1.132.125 5.95 5.95 0 0 0 2.25-4.667c0-3.84-3.37-8.176-5.378-10.418a.803.803 0 0 0-1.204 0c-2.007 2.242-5.378 6.578-5.378 10.417 0 1.825.82 3.524 2.25 4.668m0 0" style="stroke:none;fill-rule:nonzero;fill:#000;fill-opacity:1"/></svg>
